<?xml version="1.0" standalone="no"?>
<!DOCTYPE svg PUBLIC "-//W3C//DTD SVG 20010904//EN"
 "http://www.w3.org/TR/2001/REC-SVG-20010904/DTD/svg10.dtd">
<svg version="1.0" xmlns="http://www.w3.org/2000/svg"
 width="1929.000000pt" height="1929.000000pt" viewBox="0 0 1929.000000 1929.000000"
 preserveAspectRatio="xMidYMid meet">
<metadata>
Created by potrace 1.11, written by Peter Selinger 2001-2013
</metadata>
<g transform="translate(0.000000,1929.000000) scale(0.100000,-0.100000)"
fill="#000000" stroke="none">
<path d="M9470 16511 c-8 -5 -58 -12 -110 -16 -156 -12 -162 -13 -245 -34 -54
-13 -85 -27 -98 -42 -18 -23 -18 -23 -85 -6 -37 9 -89 20 -117 23 -27 3 -54 8
-58 11 -20 12 -127 19 -127 9 0 -8 -2 -8 -8 0 -14 21 -142 29 -402 26 -344 -4
-409 -6 -405 -12 2 -3 -34 -5 -78 -6 -112 -1 -398 -33 -414 -45 -7 -6 -17 -8
-23 -4 -5 3 -16 3 -22 -2 -7 -4 -26 -9 -43 -10 -82 -6 -127 -20 -105 -33 9 -6
1 -15 -26 -29 -21 -11 -35 -20 -31 -21 23 -1 -35 -40 -83 -55 -30 -10 -60 -22
-67 -27 -7 -5 -16 -8 -20 -5 -4 2 -21 -4 -38 -14 -34 -21 -74 -40 -91 -43 -7
-1 -18 -7 -26 -14 -8 -6 -17 -9 -20 -6 -3 3 -30 -6 -59 -20 -30 -14 -85 -37
-124 -51 -87 -32 -242 -105 -354 -167 -47 -27 -91 -48 -98 -48 -6 0 -13 -3
-15 -7 -1 -5 -37 -25 -78 -46 -142 -71 -199 -106 -295 -185 -5 -4 -14 -8 -19
-8 -5 -1 -18 -10 -30 -20 -12 -11 -43 -37 -71 -59 -27 -22 -57 -46 -66 -55 -8
-8 -33 -28 -54 -45 -21 -16 -66 -53 -100 -81 -33 -28 -66 -53 -72 -55 -6 -2
-30 -21 -54 -41 -24 -21 -63 -53 -87 -72 l-42 -35 41 -48 c23 -26 51 -59 63
-73 12 -14 37 -47 56 -75 19 -27 42 -58 52 -68 22 -26 81 -137 72 -137 -4 0
-1 -6 7 -12 8 -7 21 -31 28 -53 7 -22 24 -61 36 -87 13 -25 21 -49 18 -52 -4
-3 -2 -6 4 -6 5 0 18 -39 27 -87 10 -49 20 -95 24 -103 9 -25 14 -72 15 -130
1 -95 -6 -134 -30 -182 -13 -26 -23 -54 -23 -63 0 -21 -47 -112 -63 -122 -7
-4 -23 -21 -35 -37 -13 -16 -57 -58 -100 -94 -42 -35 -80 -73 -83 -85 -3 -12
-4 -53 -3 -92 2 -45 -2 -77 -11 -91 -12 -19 -18 -43 -31 -129 -3 -16 -9 -41
-14 -55 -4 -14 -11 -38 -15 -55 -11 -52 -101 -222 -141 -267 -11 -13 -30 -39
-42 -58 -27 -44 -67 -90 -78 -90 -5 0 -14 -8 -21 -19 -19 -30 -133 -77 -255
-105 -23 -5 -28 -12 -28 -35 0 -16 -7 -44 -15 -64 -8 -19 -12 -37 -9 -40 3 -3
-3 -25 -14 -49 -11 -23 -32 -76 -47 -116 -17 -45 -42 -88 -66 -115 -22 -23
-42 -52 -46 -64 -3 -13 -9 -23 -14 -23 -8 0 -35 -37 -79 -106 -8 -13 -22 -24
-31 -24 -9 0 -24 -9 -34 -20 -10 -11 -23 -20 -29 -20 -6 0 -22 -13 -36 -30
-14 -16 -29 -30 -35 -30 -6 0 -22 -12 -36 -27 -22 -24 -90 -71 -178 -123 -14
-8 -31 -21 -39 -27 -7 -7 -17 -13 -22 -13 -5 0 -28 -13 -52 -29 -44 -29 -101
-63 -151 -88 -15 -8 -27 -19 -27 -24 0 -5 -8 -9 -18 -9 -10 0 -22 -4 -28 -8
-5 -5 -39 -17 -76 -27 -37 -9 -66 -20 -64 -24 2 -3 -3 -42 -12 -86 -17 -87
-23 -469 -10 -665 4 -69 3 -109 -4 -117 -8 -10 -6 -13 7 -13 11 0 15 -5 11
-16 -3 -8 -1 -24 4 -35 7 -13 7 -19 0 -19 -5 0 -10 -5 -10 -11 0 -5 4 -8 10
-4 12 8 8 -58 -5 -67 -5 -4 0 -8 13 -8 22 0 22 0 5 -32 -19 -36 -19 -123 -1
-145 6 -7 8 -13 4 -13 -3 0 -1 -12 5 -27 6 -15 11 -45 11 -65 0 -21 4 -38 9
-38 5 0 9 -7 9 -16 0 -8 5 -12 10 -9 6 3 10 2 10 -3 0 -6 -7 -13 -16 -16 -15
-6 -15 -8 1 -26 9 -10 18 -31 20 -47 5 -42 15 -84 25 -103 5 -10 6 -20 3 -24
-7 -6 36 -107 50 -117 5 -3 10 -17 12 -30 2 -13 6 -39 9 -57 3 -18 15 -46 26
-62 12 -17 18 -30 13 -30 -4 0 0 -5 9 -11 10 -5 18 -17 18 -24 0 -8 5 -15 11
-15 5 0 8 -4 4 -9 -3 -5 -1 -12 5 -16 6 -4 8 -10 6 -14 -3 -4 4 -18 16 -31 11
-12 21 -32 22 -44 1 -11 8 -21 16 -21 8 -1 14 -7 12 -14 -2 -8 7 -20 18 -28
14 -10 20 -22 17 -34 -3 -11 0 -19 7 -19 7 0 19 -15 28 -32 22 -45 240 -361
284 -412 19 -23 49 -55 65 -72 16 -16 29 -35 29 -42 0 -6 9 -16 20 -22 10 -6
17 -16 14 -23 -2 -7 6 -17 18 -22 13 -6 23 -14 23 -20 0 -10 16 -31 63 -81 12
-14 22 -29 22 -34 0 -5 10 -20 23 -32 12 -13 48 -53 79 -89 31 -36 69 -77 83
-90 15 -13 32 -30 38 -38 7 -7 27 -29 44 -48 18 -19 33 -39 33 -45 0 -5 4 -7
8 -4 9 5 48 -35 45 -46 -2 -4 12 -19 29 -33 30 -25 33 -26 39 -9 7 17 8 17 8
1 1 -9 7 -16 14 -15 7 2 11 -6 9 -22 -3 -24 -2 -24 13 -6 11 14 15 16 15 5 0
-12 2 -12 10 1 9 13 11 13 20 0 5 -8 10 -23 10 -32 0 -10 5 -18 11 -18 6 0 9
7 5 15 -8 21 8 19 29 -5 10 -11 26 -20 37 -20 10 0 18 -4 18 -10 0 -5 11 -12
24 -16 14 -3 27 -12 30 -20 3 -8 15 -14 26 -14 12 0 18 -4 15 -10 -4 -6 5 -10
19 -10 14 0 26 -3 26 -7 0 -5 22 -20 49 -35 68 -39 74 -48 55 -86 -16 -33 -25
-112 -12 -112 4 0 8 -8 8 -17 0 -38 40 -98 77 -118 66 -34 66 -32 8 -91 -30
-30 -58 -54 -61 -54 -25 0 -117 -56 -145 -88 -66 -75 -63 -71 -143 -229 -41
-83 -41 -87 2 -108 21 -11 50 -35 65 -55 24 -34 25 -41 20 -121 -3 -46 -11
-99 -19 -117 -16 -39 -64 -93 -76 -86 -4 3 -8 0 -8 -5 0 -6 -12 -11 -26 -11
-14 0 -23 3 -21 8 3 4 -8 8 -24 9 -36 3 -42 -8 -46 -77 -2 -30 -7 -99 -12
-154 -5 -54 -6 -108 -2 -119 4 -12 3 -33 -2 -48 -8 -19 -7 -41 1 -76 7 -26 15
-66 18 -88 3 -22 9 -44 14 -49 5 -5 6 -15 3 -22 -3 -8 0 -28 7 -46 6 -18 14
-51 16 -73 3 -22 10 -42 15 -43 6 -3 5 -10 -2 -18 -9 -11 -8 -14 1 -14 8 0 10
-3 7 -7 -4 -3 -2 -12 4 -20 6 -7 9 -13 5 -13 -3 0 0 -16 8 -35 8 -19 13 -35
10 -35 -2 0 2 -13 11 -30 9 -17 13 -30 10 -30 -3 0 1 -10 9 -23 8 -12 16 -44
20 -72 3 -27 10 -67 16 -89 6 -21 9 -61 6 -90 -13 -112 -18 -141 -26 -151 -4
-5 -12 -31 -17 -56 -11 -51 -63 -123 -104 -144 -14 -8 -52 -17 -86 -20 -76 -9
-110 6 -181 80 -53 55 -80 66 -101 41 -35 -42 162 -285 266 -327 29 -12 54
-25 54 -30 1 -5 2 -14 3 -20 2 -18 -122 -136 -136 -131 -5 1 -8 -2 -8 -8 0 -5
-6 -10 -12 -10 -7 -1 -26 -11 -42 -24 -25 -21 -33 -22 -67 -13 -32 8 -43 7
-58 -7 -10 -9 -21 -13 -24 -9 -4 3 -7 -3 -7 -14 0 -12 -6 -23 -13 -26 -11 -4
-14 -26 -8 -73 2 -20 80 -94 98 -94 10 0 29 -9 43 -20 14 -11 31 -20 39 -20 8
0 23 -8 34 -17 13 -11 17 -13 12 -4 -6 11 -2 10 16 -2 13 -9 34 -17 47 -17 14
0 21 -4 17 -11 -4 -6 -1 -9 6 -8 8 1 25 -1 39 -4 14 -4 35 -8 47 -10 12 -2 26
-6 29 -10 4 -4 18 -7 30 -7 13 0 25 -4 28 -8 2 -4 28 -7 58 -7 29 1 55 -2 58
-7 3 -4 39 -10 80 -12 41 -3 75 -6 75 -6 0 -1 17 -4 38 -5 20 -2 37 -1 37 3 0
4 21 7 48 7 26 0 68 7 95 17 26 10 61 18 77 18 17 0 30 4 30 8 0 5 6 9 14 9
10 0 7 -13 -10 -48 -27 -54 -27 -113 1 -191 9 -24 18 -52 20 -62 11 -47 38
-114 58 -142 12 -17 42 -60 66 -95 73 -104 172 -231 200 -255 l26 -24 -40 -36
c-50 -45 -39 -36 -180 -128 -140 -91 -129 -84 -236 -161 -46 -33 -93 -70 -105
-82 -11 -12 -27 -23 -35 -25 -7 -2 -22 -11 -31 -21 -9 -10 -19 -18 -22 -18 -3
1 -23 -6 -44 -15 -20 -9 -47 -20 -59 -25 -13 -5 -23 -13 -23 -18 0 -5 -14 -12
-30 -16 -16 -4 -30 -11 -30 -16 0 -5 -9 -9 -19 -9 -11 0 -22 -4 -26 -9 -3 -6
-30 -22 -60 -37 -30 -14 -55 -31 -55 -36 0 -6 -7 -8 -15 -4 -8 3 -15 2 -15 -2
0 -7 -53 -27 -100 -38 -14 -3 -29 -7 -35 -8 -5 -2 -30 -12 -55 -24 -26 -12
-46 -17 -48 -11 -3 6 -8 6 -15 0 -7 -5 -41 -19 -77 -31 -73 -24 -102 -36 -143
-56 -16 -8 -35 -14 -42 -14 -8 0 -20 -7 -28 -15 -8 -8 -41 -17 -73 -20 -33 -4
-61 -10 -64 -13 -3 -4 -18 -7 -34 -7 -20 0 -36 10 -57 35 -16 19 -29 39 -29
45 0 5 -29 29 -63 52 -34 23 -82 60 -105 82 -24 23 -47 41 -52 41 -5 0 -10 4
-12 8 -1 5 -37 25 -80 45 -42 19 -79 40 -82 46 -3 5 -30 17 -59 26 -28 9 -61
21 -72 26 -11 5 -54 16 -95 25 -215 45 -399 61 -500 44 -121 -21 -259 -87
-373 -178 -48 -39 -105 -81 -125 -93 -20 -13 -44 -31 -52 -42 -8 -11 -37 -43
-65 -72 -67 -71 -80 -88 -78 -97 2 -4 -6 -12 -17 -18 -11 -6 -20 -18 -20 -26
0 -9 -15 -34 -34 -57 -19 -23 -46 -69 -61 -102 -15 -33 -43 -93 -63 -133 -19
-40 -36 -90 -38 -110 -1 -20 -3 -37 -4 -37 -1 0 -4 -10 -6 -22 -2 -13 -6 -33
-8 -45 -2 -13 -5 -25 -6 -28 -1 -3 -2 -8 -1 -13 0 -4 -3 -7 -9 -7 -5 0 -9 -10
-8 -22 1 -29 -18 -137 -38 -205 -20 -73 -23 -159 -7 -218 7 -27 15 -70 18 -95
6 -56 20 -90 62 -157 18 -29 33 -57 33 -62 0 -6 6 -14 13 -18 12 -8 24 -23 71
-93 46 -70 149 -161 196 -175 14 -4 34 -16 45 -26 36 -33 209 -108 296 -128
163 -38 363 -49 499 -26 19 3 62 7 95 9 88 6 208 28 225 42 8 6 43 19 78 28
54 14 105 42 168 95 6 5 34 21 62 35 27 14 52 29 54 34 6 15 63 48 103 60 22
6 78 14 125 17 158 11 214 19 235 35 13 9 68 21 125 26 64 5 281 71 326 100
12 7 59 28 105 47 154 64 264 111 269 117 7 8 76 40 87 40 5 0 51 18 101 39
50 22 105 42 122 46 16 4 30 10 30 13 0 9 50 32 69 32 9 0 28 6 43 14 15 8 56
24 90 36 144 50 316 126 360 159 26 20 77 54 113 76 37 22 72 45 79 51 7 6 21
14 32 18 11 3 51 26 89 51 37 25 70 45 73 45 3 0 28 15 56 34 28 18 74 45 101
60 94 49 259 148 345 206 58 39 195 128 267 173 l43 27 21 -43 c12 -23 35 -61
50 -84 16 -23 29 -46 29 -51 0 -16 88 -54 109 -47 25 8 101 90 101 110 0 8 5
15 11 15 5 0 8 4 5 8 -5 8 28 52 39 52 7 0 -6 -74 -16 -86 -6 -7 -12 -29 -15
-49 -2 -20 -11 -53 -20 -73 -16 -38 -25 -68 -26 -89 -1 -7 -5 -13 -10 -13 -4
0 -7 -3 -6 -7 0 -5 -6 -25 -15 -45 -10 -21 -17 -41 -17 -46 0 -5 -11 -21 -25
-36 -13 -14 -33 -46 -44 -70 -10 -24 -39 -75 -64 -112 -24 -38 -45 -72 -46
-76 0 -5 -9 -16 -18 -27 -10 -10 -35 -38 -57 -62 -21 -24 -55 -62 -75 -84 -79
-89 -101 -115 -103 -122 -2 -10 -25 -33 -33 -33 -27 0 -141 -171 -131 -197 3
-8 -3 -26 -14 -40 -26 -33 -26 -78 0 -106 11 -12 18 -27 16 -33 -2 -6 -1 -15
4 -20 16 -19 57 -102 79 -163 59 -163 254 -428 396 -535 21 -17 55 -46 74 -66
20 -21 48 -43 63 -51 25 -13 97 -90 154 -164 l26 -35 2699 0 2698 0 7 35 c3
19 10 35 15 35 5 0 9 4 9 10 0 5 8 18 18 29 55 59 72 80 72 91 0 6 5 8 10 5 6
-3 10 -2 10 3 0 4 9 18 20 30 25 26 45 149 55 327 3 66 11 132 17 148 8 20 7
31 -2 42 -8 9 -10 31 -6 62 23 194 28 1478 5 1643 -2 18 12 182 17 190 1 3 -1
12 -5 19 -5 7 -5 30 -1 51 5 26 3 41 -4 43 -8 3 -7 9 2 20 9 10 10 22 5 31 -5
9 -6 45 -3 82 3 36 2 68 -3 71 -4 2 -3 10 2 17 6 7 8 16 4 19 -3 4 -7 28 -9
54 -1 27 -5 104 -8 173 -3 69 -9 141 -12 160 -4 19 -7 80 -8 135 -1 55 -5 105
-8 111 -4 6 -10 46 -13 90 -4 43 -11 95 -16 114 -21 72 -42 262 -40 370 3 239
6 320 14 320 4 0 5 5 2 10 -12 19 -15 110 -4 110 5 0 8 4 4 9 -3 5 -1 12 4 15
5 3 7 15 4 25 -3 10 0 22 6 25 5 4 8 13 4 21 -3 8 0 15 6 15 6 0 8 7 5 15 -4
8 -1 15 5 15 6 0 10 3 9 7 -1 5 4 21 10 36 7 16 12 32 12 37 0 17 52 120 61
120 5 0 6 7 2 16 -3 9 2 21 13 29 11 7 29 33 41 56 12 24 32 51 44 59 30 21
101 84 168 150 90 90 91 90 202 83 90 -5 100 -3 129 17 59 42 73 91 56 203 -3
20 -2 37 2 37 11 0 29 61 37 122 3 26 9 49 13 52 4 2 30 0 59 -4 29 -5 81 -11
115 -15 35 -3 88 -8 118 -11 30 -3 76 -5 101 -4 25 0 64 -5 85 -12 60 -20 77
-13 103 42 19 41 22 59 17 97 -4 27 -9 75 -11 108 -4 60 -30 159 -62 232 -9
21 -17 40 -18 43 -1 3 -5 19 -10 35 -5 17 -25 67 -46 113 -58 126 -64 156 -41
200 62 119 95 178 111 201 10 14 28 49 41 76 13 28 29 57 35 65 7 8 38 63 68
121 68 130 80 153 89 159 4 3 23 39 43 80 21 41 43 86 50 100 7 14 19 39 26
55 7 17 21 41 30 55 9 14 41 73 71 131 31 59 70 122 87 139 17 18 31 37 31 42
0 9 35 55 100 132 20 22 46 61 59 86 37 68 103 170 111 170 4 0 15 19 26 43
21 47 79 144 101 167 19 20 81 116 104 162 11 21 24 38 29 38 6 0 10 6 10 13
0 8 23 51 50 96 28 45 50 84 50 86 0 2 17 30 39 62 21 32 58 96 82 143 24 47
54 98 67 114 13 16 37 59 54 95 17 36 48 103 69 149 21 46 46 105 56 133 14
39 22 49 38 47 11 -2 23 -9 26 -17 4 -11 8 -10 22 3 9 10 17 13 17 7 0 -6 20
-11 45 -11 27 0 45 -5 45 -11 0 -8 5 -7 15 1 9 7 18 10 22 7 3 -4 14 -2 24 4
14 7 19 6 19 -2 0 -8 4 -9 13 0 8 6 31 13 53 17 21 3 44 9 49 12 6 4 15 7 20
8 26 5 65 24 65 33 0 9 58 35 73 32 4 0 7 4 7 10 0 5 4 8 9 5 12 -8 171 132
171 151 0 4 18 21 40 37 22 17 40 36 40 45 0 8 3 11 6 8 8 -8 84 91 84 110 0
7 5 13 10 13 6 0 10 9 10 20 0 11 5 20 11 20 5 0 8 3 5 8 -2 4 2 34 10 67 18
78 26 125 25 153 0 12 3 22 7 22 4 0 6 109 5 243 -1 227 -11 333 -31 360 -4 7
-8 19 -7 27 1 8 -2 22 -6 31 -5 9 -11 31 -14 49 -3 18 -10 41 -15 50 -5 10 -7
20 -4 23 3 3 -7 24 -22 46 -14 23 -28 56 -30 73 -5 38 -31 98 -43 98 -5 0 -21
25 -36 55 -16 30 -36 62 -47 71 -10 10 -18 21 -18 26 0 9 -11 23 -42 59 -10
10 -18 23 -18 29 0 5 -11 12 -25 16 -14 3 -25 11 -25 18 0 6 -13 22 -29 36
-17 13 -28 27 -26 30 2 4 -10 15 -28 25 -18 11 -41 27 -51 37 -10 9 -24 14
-29 11 -6 -4 -8 0 -4 9 4 11 -3 20 -24 28 -16 7 -29 17 -29 22 0 6 -7 8 -15 4
-8 -3 -15 -2 -15 2 0 12 -68 34 -80 27 -5 -3 -10 -1 -10 4 0 6 -7 11 -15 11
-8 0 -15 3 -15 8 0 4 -19 8 -42 10 -23 1 -48 8 -55 13 -10 9 -190 24 -243 21
-91 -7 -133 -13 -175 -27 -80 -27 -251 -114 -276 -141 -12 -13 -28 -24 -35
-24 -18 0 -147 -89 -158 -109 -5 -9 -29 -36 -53 -60 -23 -24 -43 -48 -43 -53
0 -5 -4 -7 -9 -3 -6 3 -17 -10 -27 -30 -9 -19 -21 -35 -26 -35 -6 0 -8 -6 -5
-14 3 -8 3 -16 -2 -18 -4 -2 -32 -41 -62 -88 -55 -86 -84 -157 -95 -240 -22
-167 -25 -221 -13 -264 6 -23 11 -78 10 -123 0 -45 3 -85 9 -88 5 -3 12 -27
16 -53 6 -44 63 -164 84 -177 6 -3 10 -17 10 -30 0 -18 -4 -23 -15 -19 -8 4
-15 1 -15 -7 0 -7 -3 -9 -7 -6 -3 4 -11 -1 -17 -11 -37 -61 -59 -92 -66 -92
-4 0 -10 -10 -14 -22 -3 -13 -17 -35 -31 -51 -14 -15 -23 -27 -20 -27 3 0 -32
-47 -79 -104 -47 -57 -86 -109 -86 -115 0 -6 -4 -11 -10 -11 -5 0 -10 -6 -10
-14 0 -8 -9 -21 -20 -29 -10 -7 -24 -25 -29 -40 -6 -15 -15 -27 -21 -27 -5 0
-10 -6 -10 -13 0 -7 -20 -42 -45 -79 -25 -37 -45 -73 -45 -79 0 -7 -3 -9 -7
-6 -5 6 -53 -54 -53 -67 0 -14 -76 -117 -122 -167 -16 -16 -28 -36 -28 -44 0
-8 -3 -15 -8 -15 -4 0 -45 -50 -91 -111 -46 -60 -114 -142 -150 -181 -36 -39
-70 -77 -75 -86 -5 -8 -24 -30 -42 -48 -19 -18 -34 -36 -34 -41 0 -4 -22 -31
-49 -60 -27 -29 -46 -55 -43 -58 3 -3 0 -5 -6 -5 -6 0 -14 -9 -17 -21 -4 -12
-17 -32 -29 -46 -11 -13 -19 -25 -16 -26 2 -1 -7 -14 -20 -28 -36 -39 -87
-111 -99 -139 -5 -14 -19 -38 -30 -54 -11 -17 -18 -33 -15 -38 3 -4 1 -8 -4
-8 -5 0 -15 -13 -22 -29 -6 -16 -18 -32 -26 -35 -8 -3 -14 -12 -14 -21 0 -8
-4 -15 -9 -15 -5 0 -13 -10 -17 -22 -4 -13 -15 -33 -24 -45 l-17 -22 -39 34
c-27 25 -49 35 -71 35 -17 0 -48 9 -67 21 -42 25 -113 32 -139 14 -9 -7 -38
-31 -63 -55 -42 -39 -46 -41 -63 -26 -10 9 -25 16 -34 16 -9 0 -17 5 -17 11 0
6 -16 26 -35 45 -19 18 -35 37 -35 41 0 14 -64 52 -98 58 -57 10 -200 -74
-273 -161 -9 -10 -38 -37 -65 -59 -26 -22 -68 -59 -91 -81 -29 -28 -55 -43
-80 -47 -21 -4 -69 -16 -108 -27 -70 -21 -172 -46 -223 -54 -115 -19 -118 -19
-162 10 -57 38 -79 38 -280 0 -41 -8 -102 -22 -135 -31 -33 -9 -89 -23 -125
-30 -64 -12 -65 -12 -86 12 -11 13 -28 55 -38 92 -12 47 -27 78 -46 96 -25 24
-33 26 -74 20 -39 -6 -46 -5 -46 10 0 33 23 56 121 121 55 36 123 87 152 113
59 54 263 197 346 244 67 37 68 38 140 102 57 52 111 95 197 161 27 21 63 50
79 66 17 15 33 28 37 28 4 0 24 16 45 36 21 20 61 52 88 70 112 76 265 206
417 357 26 26 50 47 53 47 10 0 330 325 351 356 12 18 25 41 29 53 3 12 11 21
16 21 5 0 9 7 9 15 0 8 22 37 50 65 27 28 57 65 66 83 9 18 32 53 50 78 18 25
31 48 28 51 -3 3 7 31 21 63 14 32 25 63 25 70 0 7 7 30 17 51 9 22 17 62 19
90 1 28 6 60 12 70 5 11 7 25 5 32 -3 7 0 19 6 26 9 11 9 15 0 18 -9 3 -9 9
-2 23 10 19 10 78 -2 260 -8 127 -14 164 -29 188 -8 13 -13 45 -12 82 2 55 -2
73 -26 115 -4 8 -10 20 -12 25 -7 17 -37 154 -39 175 -1 11 -5 20 -9 20 -4 0
-8 7 -8 16 0 8 -7 22 -15 30 -8 9 -15 25 -15 36 0 11 -9 37 -19 57 -11 20 -22
48 -25 62 -3 14 -15 36 -26 49 -11 13 -20 27 -20 32 0 18 50 -28 65 -59 9 -18
19 -33 24 -33 10 0 54 -61 54 -76 0 -7 7 -10 14 -7 8 3 13 2 12 -3 -3 -19 1
-47 7 -41 8 8 69 -53 78 -78 4 -11 6 -20 5 -20 -6 0 27 -53 71 -114 26 -36 61
-91 76 -121 16 -30 34 -61 41 -68 7 -7 13 -20 13 -27 0 -7 12 -27 26 -44 14
-17 22 -31 17 -31 -4 0 -1 -6 8 -13 19 -14 59 -90 59 -112 0 -8 5 -15 10 -15
6 0 10 -9 10 -20 0 -11 5 -20 11 -20 6 0 9 -7 5 -15 -3 -8 1 -21 9 -29 8 -8
15 -21 15 -30 0 -8 5 -18 10 -21 6 -3 10 -19 10 -35 0 -37 40 -121 53 -113 6
3 7 1 3 -5 -4 -6 5 -38 19 -71 14 -33 25 -70 25 -81 0 -11 5 -20 11 -20 5 0 8
-4 4 -10 -3 -5 3 -25 14 -46 11 -20 17 -42 15 -49 -3 -7 5 -33 17 -57 13 -23
25 -59 26 -78 5 -50 89 -250 105 -250 4 0 8 -6 8 -13 0 -22 39 -57 55 -50 9 3
23 19 31 35 18 35 54 144 54 165 0 7 11 39 24 71 27 64 52 216 61 367 9 161 7
180 -24 190 -31 10 -111 94 -112 118 -4 62 -3 75 16 112 10 22 39 61 63 86 41
43 43 49 37 85 -4 22 -8 68 -10 104 -2 36 -7 76 -10 90 -11 45 -15 111 -8 107
5 -3 46 -87 93 -186 46 -100 90 -181 97 -181 7 0 24 -12 38 -27 l25 -28 0 37
c0 21 -5 71 -11 113 -10 66 -14 76 -34 81 -30 7 -48 52 -40 95 16 90 16 114 1
204 -16 94 -118 423 -178 574 -16 40 -27 76 -24 78 2 3 37 -43 78 -101 65 -94
98 -126 98 -96 0 36 -80 247 -139 365 -95 192 -203 341 -383 528 -48 50 -88
93 -88 95 1 14 -2 15 -10 2 -8 -12 -10 -11 -10 8 0 13 -6 22 -15 22 -8 0 -15
7 -15 16 0 9 -5 14 -12 12 -13 -5 -68 46 -68 62 0 6 -9 10 -20 10 -11 0 -20 5
-20 10 0 6 -6 10 -14 10 -8 0 -16 3 -18 8 -4 10 -99 72 -110 72 -5 0 -21 8
-36 18 -79 54 -121 80 -155 97 -21 11 -49 30 -64 42 -14 13 -30 23 -35 23 -4
0 -8 3 -8 8 0 4 71 7 157 7 87 0 188 4 224 8 69 9 123 0 187 -29 18 -9 45 -18
60 -20 113 -19 251 -71 235 -89 -5 -4 -2 -5 5 -1 30 18 1 82 -96 211 -39 51
-215 235 -226 235 -2 0 -25 21 -52 48 -89 85 -173 162 -178 162 -5 0 -19 11
-128 104 -42 36 -81 66 -86 66 -5 0 -16 7 -23 16 -7 9 -35 31 -62 49 l-49 33
46 21 c48 21 160 112 177 143 7 13 5 25 -8 44 -15 23 -15 28 -2 38 42 33 65
128 34 140 -16 6 -66 -10 -132 -43 -75 -37 -232 -22 -250 24 -4 11 7 29 31 52
62 60 43 95 -40 74 -26 -7 -48 -10 -50 -9 -1 2 2 21 7 43 19 76 21 105 10 189
-9 77 -16 99 -43 146 -5 8 -18 35 -30 60 -62 133 -231 353 -359 467 -13 12
-29 28 -35 35 -20 23 -76 68 -84 68 -5 0 -15 6 -22 13 -7 7 -40 33 -73 57 -33
24 -66 50 -73 57 -13 12 -28 17 -45 14 -5 -1 -6 3 -2 9 3 5 -1 10 -9 10 -9 0
-16 4 -16 9 0 5 -32 25 -71 45 -40 21 -88 48 -108 62 -19 13 -41 24 -47 24 -7
0 -14 7 -18 15 -3 8 -13 15 -22 15 -9 0 -27 9 -41 20 -14 11 -33 20 -42 20
-18 0 -79 21 -98 33 -7 5 -18 5 -23 2 -6 -3 -13 1 -16 9 -6 14 -62 39 -80 35
-10 -2 -29 4 -89 31 -48 21 -69 27 -112 35 -29 5 -75 24 -135 56 -10 5 -35 12
-55 15 -20 3 -60 15 -88 26 -27 12 -57 22 -65 22 -8 1 -25 8 -37 14 -13 7 -23
10 -23 6 0 -3 -7 -1 -15 6 -8 7 -15 9 -15 5 0 -4 -6 -2 -13 4 -8 6 -16 8 -19
5 -3 -3 -23 2 -44 11 -22 9 -52 19 -69 22 -16 2 -41 7 -55 9 -14 3 -45 7 -70
10 -25 2 -65 11 -90 19 -25 8 -65 16 -90 19 -25 3 -67 8 -94 11 -27 3 -54 9
-59 12 -4 3 -160 7 -345 8 -216 3 -351 8 -377 15 -65 19 -243 33 -265 21z
m2460 -854 c13 -9 29 -17 35 -17 13 0 148 -69 155 -79 3 -4 25 -17 50 -29 78
-38 163 -86 240 -137 41 -28 84 -53 95 -58 11 -4 22 -11 25 -15 3 -4 25 -25
51 -48 25 -22 43 -46 41 -52 -2 -7 1 -12 8 -12 16 0 90 -71 90 -87 0 -7 4 -13
8 -13 11 0 45 -71 62 -127 9 -30 10 -50 3 -65 -7 -16 -6 -32 4 -55 11 -29 11
-32 -2 -26 -9 3 -22 18 -31 34 -8 16 -19 29 -24 29 -6 0 -9 3 -7 8 5 15 -235
258 -265 268 -9 3 -19 13 -23 22 -3 10 -26 34 -53 54 -26 20 -67 57 -92 82
-24 25 -49 46 -55 46 -6 0 -32 20 -57 44 -25 25 -65 57 -90 73 -24 15 -50 34
-58 41 -8 7 -46 33 -85 57 -81 51 -95 62 -95 76 0 14 41 6 70 -14z m-6102
-215 c32 -21 42 -44 42 -96 0 -34 -6 -52 -27 -76 -23 -28 -31 -31 -62 -26 -20
3 -42 7 -50 8 -19 2 -53 38 -69 72 -11 24 -10 32 3 52 8 13 13 24 10 24 -13 0
34 44 60 56 32 14 56 10 93 -14z m3322 -1227 c0 -19 -4 -35 -10 -35 -5 0 -9
16 -7 35 3 45 17 45 17 0z m472 -52 c0 -4 9 -14 19 -21 11 -7 19 -19 19 -26 0
-7 21 -35 48 -62 26 -28 63 -68 83 -90 19 -21 69 -70 111 -108 66 -60 104 -90
198 -154 14 -9 31 -25 38 -34 7 -10 21 -18 31 -18 10 0 36 -17 59 -37 78 -73
99 -89 190 -147 51 -33 92 -65 92 -71 0 -7 -22 -29 -48 -50 -43 -35 -112 -115
-112 -130 0 -3 -18 -43 -39 -88 -42 -88 -54 -127 -40 -127 5 0 9 -9 9 -20 0
-33 27 -77 65 -106 28 -21 49 -28 93 -29 31 -2 62 0 67 3 6 4 18 8 28 9 10 2
28 9 40 15 12 7 25 12 29 13 3 0 10 3 14 8 4 4 16 7 26 7 10 0 56 18 102 40
46 22 86 40 89 40 3 0 16 4 29 9 13 5 27 9 32 9 5 0 12 6 17 14 5 7 12 13 16
13 4 1 17 6 28 12 11 6 23 11 28 12 7 1 32 14 72 39 64 39 84 46 110 34 14 -7
34 -12 45 -12 10 0 29 -4 42 -9 13 -5 25 -8 28 -8 3 0 16 -5 29 -12 17 -10 21
-10 16 -1 -6 9 -3 9 13 1 11 -6 33 -11 47 -11 14 0 35 -5 46 -11 11 -5 36 -12
57 -14 20 -2 39 -5 42 -6 3 -1 32 -3 65 -4 33 -1 87 -3 120 -4 79 -3 275 5
345 14 l55 7 33 -68 c19 -38 54 -105 79 -148 55 -95 235 -370 246 -374 4 -2
27 -28 51 -57 24 -30 46 -51 50 -48 3 4 6 0 6 -7 0 -7 14 -26 30 -42 17 -15
30 -35 30 -44 0 -8 5 -12 10 -9 6 3 14 -5 20 -19 5 -14 14 -26 19 -26 8 0 63
-47 122 -105 14 -14 32 -25 38 -25 22 0 36 -24 39 -69 2 -24 11 -60 22 -81 11
-21 21 -49 24 -63 2 -14 9 -34 14 -44 5 -10 17 -47 27 -83 9 -36 21 -70 25
-75 11 -13 40 -129 45 -179 2 -22 9 -44 14 -49 7 -7 7 -15 -1 -24 -8 -10 -6
-18 11 -32 12 -11 23 -29 24 -40 1 -12 5 -21 9 -21 7 0 7 -4 11 -72 1 -21 6
-38 10 -38 5 0 6 -9 2 -19 -3 -11 -2 -22 4 -25 5 -3 8 -20 7 -37 -1 -16 1 -32
6 -35 5 -3 6 -10 3 -15 -4 -5 -2 -9 3 -9 10 0 24 -67 27 -135 2 -22 5 -56 8
-75 4 -19 9 -84 12 -145 3 -60 7 -133 9 -160 5 -67 -10 -160 -34 -212 -11 -24
-20 -50 -20 -58 0 -9 -7 -29 -15 -45 -8 -16 -22 -50 -31 -77 -37 -109 -126
-275 -201 -375 -43 -57 -91 -122 -106 -144 -30 -44 -127 -143 -187 -190 -19
-15 -60 -51 -90 -79 -62 -59 -239 -206 -297 -247 -21 -15 -93 -67 -160 -115
-151 -109 -356 -253 -533 -376 -390 -269 -535 -386 -544 -439 -1 -7 -7 -22
-13 -33 -19 -36 -25 -82 -11 -88 8 -3 13 -19 12 -41 -1 -20 2 -38 6 -41 4 -2
6 -19 4 -37 -3 -25 -21 -50 -69 -98 -71 -71 -146 -149 -213 -223 -23 -26 -45
-47 -47 -47 -9 0 -91 -84 -108 -110 -12 -18 -18 -60 -22 -150 -4 -69 -11 -137
-16 -151 -6 -14 -11 -35 -12 -46 -1 -17 -12 -23 -56 -32 -30 -6 -58 -8 -62 -4
-4 5 -22 37 -40 73 -28 58 -93 150 -111 158 -3 2 -20 16 -37 33 -17 16 -39 29
-48 30 -33 1 -60 8 -107 29 -26 11 -58 20 -71 20 -13 0 -27 5 -30 10 -5 8 -11
7 -21 -1 -11 -9 -14 -9 -14 1 0 9 -3 10 -14 1 -10 -8 -16 -8 -25 2 -6 8 -35
19 -64 26 -29 6 -79 25 -112 41 -33 17 -65 30 -71 30 -12 0 -27 70 -33 153 0
10 -12 28 -25 40 -14 13 -28 35 -31 50 -5 20 -13 27 -31 27 -17 0 -22 4 -17
16 7 20 -19 16 -227 -32 -169 -39 -370 -59 -690 -69 -221 -7 -252 -9 -525 -46
-258 -34 -385 -35 -385 -2 0 8 -9 26 -20 40 -11 14 -20 32 -20 39 0 17 -3 16
40 4 39 -11 50 -2 50 43 0 15 5 27 10 27 6 0 10 13 10 29 0 16 4 31 10 33 5 2
14 26 19 54 24 125 -31 346 -124 502 -28 48 -77 130 -108 183 -70 119 -158
239 -250 343 -54 60 -65 77 -46 71 13 -5 61 -8 105 -8 67 0 89 4 124 24 62 34
63 49 3 49 -89 1 -253 80 -415 203 -217 163 -678 663 -678 736 0 6 -15 34 -33
63 -19 29 -69 136 -111 238 -43 102 -88 208 -101 237 -13 28 -21 54 -17 57 10
11 47 6 77 -10 30 -16 129 -20 170 -7 42 13 75 46 69 67 -7 23 -42 55 -61 56
-20 0 -93 34 -93 42 0 5 -7 8 -16 8 -17 0 -157 104 -208 154 -18 18 -47 63
-64 99 -18 36 -37 69 -42 72 -12 7 12 35 30 35 17 0 119 53 205 106 22 13 49
28 60 33 11 5 31 20 44 35 13 14 28 23 32 20 5 -3 9 -1 9 4 0 5 14 15 30 22
17 7 30 16 30 20 0 5 17 18 38 31 20 12 42 28 47 35 6 7 31 25 57 41 119 74
182 123 326 252 83 74 84 74 115 62 53 -21 180 -25 234 -7 27 8 82 25 123 37
41 12 107 32 147 45 39 13 86 26 103 29 71 13 196 51 216 66 10 8 94 28 134
32 21 3 110 50 110 59 0 4 7 5 15 2 8 -3 26 6 40 20 14 14 30 26 35 26 6 0 10
6 10 13 0 7 6 19 13 26 6 6 12 15 13 19 0 4 6 20 12 35 7 16 12 35 12 42 0 19
-20 64 -42 97 -18 26 -18 26 19 69 21 23 55 60 77 81 21 21 35 38 32 38 -4 0
9 16 29 35 19 20 35 39 35 43 0 4 21 29 45 56 42 46 50 59 46 79 -1 5 3 6 9 2
5 -3 10 -2 10 3 0 6 14 24 30 42 17 18 30 38 30 46 0 8 5 14 10 14 6 0 10 7
10 16 0 8 4 13 9 10 5 -3 12 5 15 19 4 14 11 25 16 25 6 0 10 9 10 21 0 11 4
18 9 14 5 -3 12 4 16 15 4 11 11 17 17 14 6 -4 8 -2 4 4 -3 6 1 18 10 26 8 9
13 16 9 16 -3 0 3 10 15 22 11 12 20 30 20 40 0 10 5 18 10 18 6 0 10 8 10 18
0 9 16 35 35 56 32 37 37 44 34 62 0 4 4 10 11 14 6 4 12 14 14 23 1 9 10 25
21 37 10 11 14 20 10 20 -5 0 2 12 16 28 30 34 52 72 45 79 -3 3 6 14 19 25
14 11 22 25 18 33 -3 9 3 18 14 22 10 5 19 19 19 33 1 14 16 62 32 106 17 45
28 85 25 88 -3 3 2 8 11 12 9 3 16 11 16 17 0 6 8 19 18 30 12 15 13 18 2 12
-13 -8 -13 -7 -1 8 8 10 15 25 16 35 1 9 8 33 16 52 7 19 12 38 11 43 -1 4 2
7 7 7 9 0 7 43 -4 59 -3 6 -2 11 3 11 4 0 14 23 21 50 8 33 18 50 28 50 14 0
15 -34 10 -302 l-5 -303 -41 -155 c-23 -85 -51 -198 -63 -250 -24 -108 -49
-181 -60 -174 -5 3 -8 -4 -8 -15 0 -11 -6 -26 -13 -33 -7 -7 -18 -24 -25 -38
-32 -65 -120 -225 -172 -311 -69 -115 -78 -139 -54 -139 29 0 317 304 340 359
7 16 22 36 33 43 12 7 21 18 21 24 0 6 15 28 33 48 17 20 52 70 77 111 25 42
66 104 91 138 25 34 60 93 78 132 17 38 35 72 39 75 4 3 18 28 32 55 14 28 30
53 35 57 6 4 6 8 1 8 -5 0 -4 6 1 13 11 13 27 67 25 80 -1 4 3 7 8 7 6 0 10 6
8 13 -1 6 2 30 7 52 4 22 9 45 10 50 0 6 4 17 7 25 24 68 30 90 32 122 1 20 5
40 9 44 4 4 7 29 7 56 0 31 4 48 13 49 9 0 9 2 0 6 -13 5 -8 48 8 69 9 11 2
52 -12 70 -5 6 -6 14 -2 17 7 8 14 3 15 -10z m4289 -700 c13 -16 12 -17 -3 -4
-17 13 -22 21 -14 21 2 0 10 -8 17 -17z m-6051 -680 c0 -15 -31 -98 -54 -148
-13 -27 -28 -62 -34 -76 -9 -23 -18 -27 -56 -30 -67 -6 -82 4 -53 33 8 7 27
33 42 58 15 24 52 69 81 99 30 30 54 58 54 63 0 4 5 8 10 8 6 0 10 -3 10 -7z
m8490 -1099 c108 -33 160 -57 187 -86 29 -33 85 -116 108 -163 11 -22 24 -43
28 -46 5 -3 8 -10 8 -15 -1 -13 11 -48 18 -54 19 -16 61 -89 61 -108 0 -12 4
-22 9 -22 5 0 12 -17 16 -37 4 -21 13 -49 20 -63 7 -14 16 -42 20 -63 4 -20
11 -37 15 -37 4 0 13 -14 20 -31 10 -24 10 -33 1 -38 -9 -6 -8 -16 4 -44 17
-41 20 -77 6 -77 -5 0 -7 -9 -4 -20 3 -11 10 -17 16 -13 6 4 8 0 4 -10 -3 -10
-2 -17 4 -17 6 0 7 -4 4 -10 -3 -5 -1 -36 5 -67 19 -99 20 -117 7 -125 -8 -5
-8 -11 -2 -15 14 -11 17 -33 5 -33 -5 0 -7 -7 -4 -15 4 -8 1 -22 -5 -29 -8
-10 -9 -16 -1 -21 6 -3 8 -11 5 -16 -9 -14 -15 -49 -19 -106 -2 -29 -9 -59
-15 -67 -6 -8 -11 -18 -9 -22 4 -16 -19 -68 -41 -91 -12 -12 -21 -25 -21 -29
0 -15 -73 -104 -81 -98 -5 3 -9 2 -9 -3 0 -4 -7 -17 -16 -28 -13 -17 -16 -18
-24 -5 -8 13 -10 12 -10 -2 0 -10 -4 -18 -10 -18 -5 0 -10 -6 -10 -14 0 -8
-10 -18 -22 -22 -13 -4 -36 -16 -53 -28 -16 -12 -37 -22 -45 -24 -8 -2 -16 -7
-18 -12 -2 -5 -10 -6 -18 -3 -8 3 -14 0 -14 -7 0 -8 -9 -11 -25 -8 -14 3 -25
1 -25 -4 0 -5 -4 -7 -9 -4 -5 4 -11 1 -13 -5 -4 -12 -71 -14 -119 -3 -19 4
-42 7 -51 5 -10 -1 -18 4 -18 11 0 10 -2 10 -9 -1 -9 -14 -40 -21 -98 -24 -17
-1 -29 -5 -27 -9 3 -4 -2 -8 -11 -8 -28 0 -38 -48 -19 -95 l16 -43 -41 -54
c-23 -30 -41 -59 -41 -63 0 -5 -6 -16 -14 -24 -8 -9 -32 -52 -54 -96 -22 -44
-51 -91 -64 -104 -24 -25 -35 -43 -79 -127 -14 -27 -42 -71 -62 -97 -20 -27
-37 -53 -37 -59 0 -6 -20 -41 -44 -77 -24 -36 -63 -96 -87 -133 -24 -38 -47
-68 -51 -68 -5 0 -8 -6 -8 -14 0 -19 -72 -137 -87 -143 -7 -3 -13 -11 -13 -19
0 -8 -4 -14 -10 -14 -5 0 -10 -5 -10 -11 0 -6 -15 -32 -34 -58 -19 -25 -45
-71 -58 -101 -14 -30 -36 -68 -49 -85 -14 -16 -47 -64 -74 -105 -27 -41 -52
-77 -55 -80 -9 -7 -55 -74 -55 -80 -1 -14 -32 -60 -66 -97 -21 -23 -41 -53
-45 -67 -3 -14 -10 -26 -14 -26 -5 0 -11 -9 -15 -19 -3 -11 -15 -23 -26 -26
-10 -4 -19 -13 -19 -21 0 -8 -4 -14 -10 -14 -5 0 -9 -3 -9 -7 3 -18 -2 -32
-14 -45 -21 -22 -87 -115 -87 -123 0 -10 -82 -119 -92 -123 -5 -2 -8 -8 -8
-13 0 -8 -149 -233 -197 -295 -12 -17 -23 -35 -23 -40 0 -6 -5 -15 -12 -22 -6
-6 -24 -49 -38 -94 -33 -104 -49 -110 -80 -31 -13 32 -34 74 -47 93 -13 19
-23 40 -23 45 0 11 -39 92 -59 125 -18 28 -41 83 -41 97 0 7 -9 22 -19 32 -22
22 -46 63 -43 73 1 3 -5 12 -13 18 -8 7 -15 16 -15 21 0 5 -11 27 -25 49 -14
22 -22 40 -18 40 5 0 0 5 -9 11 -10 5 -18 15 -18 20 0 6 -13 30 -30 54 -16 24
-30 46 -30 49 0 12 -79 121 -104 145 -14 14 -26 29 -26 33 0 5 -13 28 -29 51
-36 53 -41 70 -25 82 7 6 14 17 16 25 2 8 11 21 21 28 9 7 17 19 17 26 0 8 7
17 16 20 8 3 13 10 10 15 -3 4 9 32 27 62 18 30 40 65 48 79 8 14 17 27 20 30
3 3 31 46 62 95 31 50 92 144 135 210 52 78 77 124 71 131 -14 18 1 45 21 39
13 -4 21 3 30 24 7 17 11 33 10 37 -1 4 2 10 8 13 5 3 26 37 46 74 21 37 45
74 53 82 8 8 11 15 6 15 -4 0 -3 4 3 8 17 12 119 153 174 242 108 173 309 463
377 544 18 22 33 44 33 49 0 12 151 187 161 187 5 0 -15 -30 -46 -67 -30 -37
-55 -72 -55 -79 0 -7 -4 -14 -8 -16 -4 -1 -18 -23 -30 -48 l-22 -45 44 47 c24
27 43 42 42 35 -1 -7 -12 -24 -24 -37 -12 -13 -22 -28 -22 -32 0 -10 60 49 60
60 0 4 15 23 33 43 73 84 117 143 117 159 0 5 8 11 18 14 9 4 34 31 55 61 21
30 42 55 46 55 4 0 32 24 63 54 32 29 59 51 62 48 4 -3 6 2 6 12 0 10 5 14 12
10 6 -4 8 -3 4 4 -3 6 -2 13 4 17 14 9 12 61 -2 73 -7 5 -31 15 -53 22 -66 21
-68 23 -92 121 -17 71 -22 112 -19 167 3 41 1 85 -4 97 -13 34 -13 91 0 165 6
36 13 83 15 105 6 49 53 163 85 205 14 18 31 42 40 55 108 160 180 215 445
336 66 30 122 36 285 33 111 -3 150 -8 220 -30z m-11454 -2357 c12 -17 33 -52
46 -77 29 -55 109 -177 135 -207 11 -12 28 -34 39 -48 10 -15 29 -39 41 -53
13 -15 23 -30 23 -34 0 -10 61 -78 110 -122 24 -23 54 -51 67 -63 13 -12 23
-20 23 -17 0 3 23 -16 51 -43 28 -26 57 -51 64 -56 8 -4 27 -20 43 -35 45 -42
75 -62 93 -62 9 0 27 -9 41 -19 13 -11 49 -31 79 -46 30 -14 79 -42 110 -63
30 -20 70 -47 88 -58 l33 -22 -21 -19 c-12 -11 -36 -20 -53 -21 -17 0 -48 -4
-68 -7 -27 -4 -53 -1 -86 13 -68 27 -174 63 -204 69 -14 2 -32 7 -40 10 -23 9
-32 12 -80 24 -25 6 -58 15 -75 19 -28 8 -96 20 -140 25 -104 10 -295 136
-384 253 -39 52 -42 56 -72 92 -62 75 -84 154 -76 274 7 94 27 176 63 252 20
43 30 54 49 54 13 0 27 5 30 10 13 21 50 10 71 -23z m6277 -1418 c9 -22 13
-47 10 -55 -3 -8 6 -36 20 -62 35 -67 46 -203 47 -586 0 -175 3 -322 5 -327 8
-12 8 -296 0 -309 -5 -8 -11 -8 -21 1 -8 6 -14 8 -14 4 0 -14 -42 29 -57 59
-8 16 -37 57 -63 90 -117 149 -251 379 -313 534 -9 23 -24 45 -32 48 -8 4 -15
12 -15 20 0 18 -76 19 -84 2 -4 -7 -4 10 -2 39 8 86 34 121 193 262 184 164
211 189 226 216 7 13 22 41 35 64 12 22 28 41 36 41 7 0 20 -18 29 -41z m1900
-16 c-7 -2 -19 -2 -25 0 -7 3 -2 5 12 5 14 0 19 -2 13 -5z m611 -65 c-4 -5 12
-29 34 -51 65 -67 286 -471 392 -717 17 -41 85 -185 151 -320 65 -135 121
-261 123 -280 3 -19 15 -66 27 -105 48 -154 107 -410 98 -427 -8 -14 -18 -16
-60 -11 -38 4 -53 2 -59 -8 -6 -10 -38 -14 -112 -17 -114 -4 -176 10 -193 43
-5 11 -19 22 -30 23 -11 2 -20 5 -21 5 0 1 2 32 5 69 5 47 3 72 -7 85 -7 10
-12 33 -11 53 1 19 -6 78 -14 130 -16 100 -32 239 -29 253 1 5 -2 25 -7 45 -5
20 -15 64 -21 97 -12 63 -32 135 -75 272 -14 45 -30 112 -35 150 -9 76 -13 93
-21 108 -4 6 -13 44 -22 85 -49 233 -52 248 -76 310 -12 30 -21 67 -21 83 0
15 -6 38 -14 50 -7 12 -16 39 -19 59 -4 29 -3 36 9 31 7 -3 11 -10 8 -15z
m-8181 -83 c31 -16 57 -32 57 -37 0 -5 4 -7 9 -3 5 3 12 1 16 -5 3 -5 15 -10
25 -10 11 0 43 -11 72 -24 49 -22 83 -32 141 -41 26 -5 100 -23 144 -36 18 -6
52 -8 75 -5 33 5 66 -2 143 -27 90 -31 100 -37 103 -61 2 -18 -2 -28 -15 -33
-10 -4 -21 -11 -24 -15 -15 -23 -211 -29 -225 -7 -3 5 -20 9 -37 9 -39 0 -156
36 -177 54 -12 11 -68 30 -78 27 -3 -2 -26 17 -58 47 -14 12 -31 22 -38 22 -7
0 -31 18 -54 39 -23 22 -51 43 -64 47 -12 4 -37 23 -55 43 -30 34 -43 57 -25
48 4 -2 33 -16 65 -32z m3934 -52 c4 -12 -13 -18 -78 -27 -62 -9 -91 -25 -145
-82 -79 -81 -117 -133 -110 -149 5 -14 -46 -65 -66 -65 -12 0 -96 -33 -273
-105 -71 -29 -155 -62 -185 -73 -31 -11 -94 -38 -140 -60 -144 -66 -179 -82
-189 -82 -5 0 -14 -7 -21 -15 -7 -8 -23 -15 -36 -15 -12 0 -49 -13 -81 -29
-32 -16 -83 -39 -113 -52 -30 -13 -61 -28 -69 -33 -20 -15 -80 -36 -136 -48
-27 -6 -60 -19 -71 -30 -12 -10 -32 -20 -45 -21 -13 0 -26 -4 -29 -7 -9 -11
-78 -40 -94 -40 -9 0 -45 -18 -80 -40 -35 -22 -69 -40 -76 -40 -6 0 -24 -8
-38 -17 -15 -10 -36 -23 -47 -29 -27 -14 -83 -119 -91 -171 -5 -33 -12 -46
-32 -55 -27 -13 -58 -61 -121 -183 -20 -39 -46 -85 -59 -102 -12 -17 -38 -60
-58 -95 -69 -120 -74 -129 -91 -156 -10 -15 -21 -30 -26 -33 -5 -3 -8 -10 -8
-15 1 -10 -87 -151 -97 -156 -4 -2 -20 -20 -36 -41 -30 -41 -48 -45 -23 -5 22
34 74 213 82 283 5 33 8 88 9 122 1 35 5 63 10 63 5 0 3 6 -3 14 -6 7 -9 20
-6 28 3 8 -4 58 -15 111 -12 54 -19 101 -16 105 2 4 -1 21 -9 37 -14 31 -59
186 -70 243 -4 17 -11 32 -16 32 -5 0 -9 8 -9 19 0 10 -7 24 -15 31 -8 7 -15
19 -15 27 0 8 -13 34 -30 58 -16 24 -30 47 -30 50 0 4 -18 26 -41 48 -22 22
-46 55 -54 74 -8 18 -42 81 -76 140 -53 92 -62 115 -60 152 1 46 14 71 36 71
13 0 83 72 101 103 9 15 8 26 -2 46 -14 27 -7 42 23 49 40 8 94 9 135 2 24 -5
45 -4 48 0 12 19 105 29 281 30 160 1 190 4 230 22 64 27 100 22 112 -17 6
-16 14 -32 18 -35 5 -3 11 -28 13 -55 7 -61 11 -82 25 -118 13 -35 17 -119 7
-175 -5 -28 -4 -47 4 -56 6 -8 7 -16 3 -19 -4 -3 -7 -43 -7 -89 3 -130 2 -128
23 -128 13 0 28 19 50 64 17 36 31 72 31 80 0 8 4 17 8 20 4 2 9 19 10 38 3
38 37 113 64 140 10 10 21 36 24 57 4 22 24 68 45 103 22 35 49 93 61 131 l22
67 101 -6 c185 -13 488 -6 680 15 50 5 119 13 155 16 36 3 106 13 157 21 50 7
138 16 195 19 159 8 308 24 368 39 64 16 102 16 107 -1z m-5 -236 c15 -9 33
-17 41 -17 7 0 42 -12 78 -26 35 -14 102 -32 149 -40 47 -9 148 -36 225 -61
77 -24 149 -48 161 -51 29 -10 144 -142 144 -166 0 -11 9 -29 20 -41 l20 -21
-62 7 c-34 4 -70 3 -79 -1 -16 -9 -29 -4 -29 11 0 5 15 11 34 15 29 5 36 12
42 37 5 26 2 35 -20 54 -26 22 -68 29 -100 17 -9 -3 -33 -31 -54 -62 -34 -51
-40 -68 -50 -154 -7 -53 -12 -123 -12 -155 0 -32 -7 -113 -15 -178 -9 -66 -20
-182 -25 -257 -5 -75 -14 -147 -20 -159 -7 -12 -12 -37 -12 -55 0 -23 -4 -32
-11 -27 -46 27 -71 54 -92 100 -13 29 -28 53 -33 53 -19 0 -186 294 -358 630
-66 128 -192 395 -194 410 -8 54 2 92 27 116 15 14 32 23 39 20 7 -3 32 13 56
34 l43 38 30 -27 c17 -15 42 -35 57 -44z m1218 -217 c0 -21 27 -40 48 -33 6 3
12 2 12 -2 0 -11 -52 -49 -77 -57 -22 -6 -23 -4 -18 25 11 60 13 72 14 80 2
17 21 5 21 -13z m-5117 -421 c20 -13 37 -27 37 -31 0 -5 9 -19 21 -32 12 -13
21 -27 20 -30 -1 -4 5 -20 14 -36 14 -27 14 -29 -1 -23 -14 5 -15 3 -5 -15 6
-12 7 -23 2 -26 -5 -3 -12 -21 -15 -39 -7 -36 -21 -46 -95 -70 -33 -11 -53
-12 -74 -4 -21 7 -25 12 -15 18 11 7 11 9 -1 9 -8 0 -34 16 -57 36 -42 33 -44
38 -44 87 0 31 6 62 16 75 8 12 12 22 8 22 -4 0 1 9 11 20 10 11 15 20 11 20
-4 0 4 11 16 24 30 31 99 29 151 -5z m-420 -417 c40 -27 77 -82 77 -116 0 -51
-30 -105 -67 -118 -22 -8 -29 -15 -20 -20 7 -5 8 -8 1 -8 -6 0 -14 3 -18 7 -4
4 -24 9 -44 10 -20 1 -38 7 -40 13 -2 5 -7 8 -12 5 -11 -7 -43 25 -57 56 -11
26 -4 92 12 120 13 20 55 53 79 61 37 11 60 8 89 -10z m1450 -2703 c34 -6 70
-15 80 -21 19 -10 46 -17 83 -23 12 -2 30 -7 40 -13 11 -6 40 -13 67 -17 41
-6 46 -5 41 9 -3 9 -1 16 5 16 6 0 11 -5 11 -11 0 -6 9 -8 20 -4 13 4 34 -1
56 -14 19 -12 41 -21 48 -21 17 0 143 -65 162 -84 8 -9 12 -16 8 -16 -11 0
152 -154 203 -193 23 -18 43 -37 43 -43 0 -17 54 -83 68 -84 6 0 12 -6 12 -12
0 -7 16 -30 34 -51 19 -21 37 -51 41 -67 3 -16 12 -34 20 -40 9 -7 11 -20 5
-43 -5 -18 -13 -58 -19 -91 -10 -54 -49 -174 -89 -269 -8 -21 -15 -44 -15 -52
0 -8 -4 -15 -9 -15 -4 0 -8 -7 -8 -15 0 -16 -25 -60 -47 -83 -10 -10 -14 -7
-18 15 -4 15 -11 37 -15 48 -11 23 -47 124 -63 175 -6 19 -15 37 -19 40 -4 3
-19 30 -33 60 -33 69 -71 142 -82 155 -4 6 -21 35 -37 65 -16 30 -38 66 -48
79 -10 13 -18 29 -18 35 0 6 -14 26 -30 45 -17 18 -30 37 -30 42 0 4 -27 36
-61 71 -34 35 -80 84 -103 109 -45 50 -151 139 -165 139 -5 0 -11 7 -15 15 -3
8 -13 15 -23 15 -10 0 -24 9 -30 19 -7 11 -26 22 -43 26 -17 4 -36 15 -43 26
-6 10 -19 19 -28 19 -9 0 -28 9 -42 20 -14 11 -28 20 -32 20 -11 0 -34 27 -29
33 7 7 66 1 147 -14z m-228 -175 c21 -8 53 -28 71 -42 19 -15 35 -25 37 -22 3
6 29 -14 73 -57 18 -18 39 -31 46 -28 7 2 22 -10 33 -27 11 -18 43 -48 72 -68
29 -19 54 -43 57 -52 2 -10 15 -22 29 -27 14 -6 38 -26 54 -46 15 -19 49 -58
76 -87 26 -28 47 -56 47 -63 0 -7 13 -23 30 -36 20 -16 31 -36 36 -64 3 -22 9
-42 13 -45 26 -21 92 -114 97 -137 5 -25 1 -31 -29 -48 -20 -10 -41 -29 -48
-42 -7 -13 -18 -23 -26 -23 -7 0 -13 -4 -13 -8 0 -5 -15 -15 -33 -24 -33 -16
-132 -95 -195 -157 -68 -66 -172 -153 -202 -170 -48 -25 -192 -112 -222 -132
-15 -11 -32 -19 -38 -19 -5 0 -10 -4 -10 -9 0 -9 -33 -30 -120 -79 -25 -13
-59 -35 -77 -48 -17 -13 -36 -24 -42 -24 -6 0 -11 -4 -11 -10 0 -11 -145 -82
-215 -105 -27 -9 -63 -22 -80 -30 -16 -7 -53 -23 -82 -34 -44 -17 -266 -121
-325 -152 -10 -5 -46 -24 -80 -42 -65 -34 -139 -62 -243 -91 -33 -10 -73 -22
-90 -28 -35 -11 -55 -17 -185 -53 -52 -15 -104 -31 -115 -36 -58 -26 -318
-112 -365 -120 -128 -23 -177 -31 -210 -35 -57 -6 -266 -50 -279 -59 -8 -4
-11 -20 -9 -36 4 -27 1 -30 -46 -45 -28 -10 -62 -24 -76 -33 -13 -9 -27 -15
-30 -15 -6 2 -18 -1 -45 -12 -11 -4 -23 -8 -27 -8 -3 -1 -10 -4 -14 -9 -4 -4
-12 -7 -18 -7 -6 0 -4 5 4 10 9 6 10 10 3 10 -7 0 -16 -7 -20 -15 -5 -8 -25
-15 -46 -17 -20 -1 -37 -5 -37 -8 0 -3 -8 -6 -17 -7 -48 -2 -161 -13 -183 -18
-73 -16 -155 -22 -254 -20 -61 2 -112 4 -113 5 -2 1 -6 3 -10 5 -5 1 -21 7
-38 14 -16 7 -41 14 -55 16 -14 1 -25 4 -25 5 0 1 -16 4 -35 7 -37 5 -157 66
-223 114 -44 32 -137 117 -137 125 0 3 -29 50 -64 105 -46 71 -74 129 -97 202
-39 117 -42 180 -17 297 9 41 18 93 19 115 1 22 6 47 10 55 4 8 9 29 12 45 3
17 18 59 34 95 17 36 34 76 38 90 4 14 15 39 23 55 9 17 17 32 17 35 4 23 121
182 153 210 23 19 42 40 43 45 0 6 30 33 66 60 36 28 84 67 106 88 23 20 48
37 55 37 8 0 48 16 90 36 42 20 81 37 87 38 5 1 34 10 64 20 45 15 70 17 150
11 53 -4 105 -7 116 -7 11 0 37 -5 58 -10 21 -5 53 -11 70 -13 98 -13 210 -50
264 -86 23 -16 45 -29 49 -29 4 0 21 -11 39 -24 17 -13 65 -41 107 -61 41 -20
101 -61 134 -91 32 -29 65 -54 72 -54 10 0 17 -19 14 -42 -1 -3 6 -12 14 -19
47 -39 298 3 336 56 4 6 8 7 8 3 0 -3 26 4 58 16 31 13 77 26 101 30 24 4 49
10 55 14 13 8 22 10 64 18 17 4 32 11 32 16 0 5 4 7 9 3 5 -3 12 -1 16 5 3 5
13 10 21 10 8 0 36 9 62 21 26 12 56 24 67 28 11 5 45 19 75 33 30 14 72 31
93 38 21 6 52 25 70 41 18 17 52 40 76 52 24 12 57 34 74 50 16 15 32 27 36
27 3 0 24 16 46 36 22 19 60 46 85 60 25 14 72 42 106 62 34 20 116 70 183
110 66 40 121 77 121 82 0 14 62 48 101 55 25 5 55 24 91 58 80 76 195 171
218 179 11 4 20 12 20 18 0 14 22 12 65 -6z"/>
<path d="M11960 12484 c-37 -6 -242 -24 -345 -29 -49 -3 -115 -13 -145 -21
-81 -23 -216 -83 -237 -106 -10 -11 -31 -27 -46 -35 -42 -21 -123 -89 -207
-173 -63 -64 -100 -113 -136 -182 -17 -32 -39 -66 -47 -76 -15 -17 -37 -63
-43 -90 -1 -7 -32 -40 -68 -73 -77 -71 -84 -91 -28 -82 20 4 42 6 47 6 39 0
55 -4 50 -13 -3 -5 -1 -10 5 -10 12 0 7 -38 -9 -68 -17 -33 -10 -70 15 -76 33
-9 49 1 63 39 8 22 29 46 57 65 24 17 44 35 44 40 0 18 77 87 120 108 39 19
66 38 163 118 11 9 47 36 80 61 34 24 83 65 109 89 26 24 50 44 54 44 5 0 42
26 84 58 89 69 195 136 230 147 14 4 34 13 45 19 11 7 31 15 45 19 66 15 232
79 250 97 11 11 27 20 35 20 8 0 15 4 15 9 0 4 21 14 48 21 26 6 57 16 70 21
23 9 30 33 12 44 -12 7 -294 15 -330 9z"/>
<path d="M9543 11252 c-6 -4 -16 -19 -21 -32 -13 -33 -6 -225 12 -345 3 -16
10 -68 16 -115 6 -46 15 -89 20 -94 6 -6 10 -30 10 -53 0 -82 63 -166 119
-160 17 2 34 7 38 10 3 4 13 7 22 7 9 0 31 17 51 38 30 32 49 46 80 57 3 1 13
5 22 9 9 4 22 9 30 10 30 7 98 40 98 48 0 4 9 8 20 8 31 0 77 90 64 125 -6 14
-63 42 -77 37 -5 -1 -6 2 -3 7 4 5 -2 14 -11 20 -10 5 -17 12 -15 15 5 12 2
26 -5 24 -19 -5 -52 14 -47 27 4 9 -7 20 -30 31 -19 10 -33 21 -30 26 3 4 1 8
-4 8 -12 0 -102 90 -102 101 0 5 -6 9 -13 9 -8 0 -22 9 -31 19 -22 24 -103 53
-111 40 -9 -13 -21 -11 -23 4 -1 14 -10 52 -12 52 -1 0 -3 11 -6 24 -8 44 -33
61 -61 43z m165 -198 c18 -19 36 -34 40 -34 4 0 29 -23 56 -51 28 -28 80 -71
118 -96 37 -25 81 -59 98 -75 20 -19 37 -27 48 -23 13 5 12 1 -4 -16 -16 -17
-42 -33 -74 -44 -3 -1 -17 -7 -32 -13 -15 -6 -35 -9 -43 -6 -8 4 -15 1 -15 -7
0 -7 -3 -9 -7 -6 -3 4 -12 2 -20 -4 -7 -6 -13 -8 -13 -5 0 4 -10 1 -22 -6 -22
-12 -28 -14 -47 -17 -4 0 -23 -14 -42 -30 -18 -17 -34 -29 -35 -28 -1 1 -4 16
-7 32 -3 17 -10 42 -15 57 -6 14 -13 56 -16 93 -3 36 -10 83 -16 104 -14 52
-20 95 -24 164 -4 55 -3 57 18 51 11 -4 36 -22 54 -40z"/>
<path d="M8120 10949 c-52 -4 -108 -10 -125 -13 -16 -3 -77 -8 -135 -11 -58
-4 -132 -15 -165 -25 -33 -10 -80 -24 -105 -31 -25 -7 -49 -15 -55 -18 -5 -3
-19 -7 -30 -8 -11 -2 -24 -8 -29 -13 -6 -6 -16 -10 -24 -10 -31 0 -260 -114
-447 -222 -26 -16 -51 -28 -55 -28 -8 0 -66 -43 -115 -85 -30 -27 -109 -81
-125 -87 -9 -3 -13 -22 -11 -55 1 -16 7 -23 21 -23 28 0 25 -12 -16 -61 -43
-52 -64 -91 -64 -120 0 -14 -20 -41 -51 -72 -49 -47 -59 -77 -25 -77 14 0 86
37 96 50 3 4 77 51 165 105 88 53 180 112 205 130 90 64 308 176 370 191 19 4
42 9 50 11 8 2 26 6 40 8 14 2 54 11 90 19 82 19 188 27 195 15 9 -13 21 -11
37 5 12 11 83 31 145 40 7 1 16 5 19 9 4 4 15 7 24 7 10 0 23 7 30 15 7 8 27
15 45 15 17 0 54 7 81 15 93 29 175 45 227 45 72 1 120 13 146 39 28 28 20 59
-17 67 -15 4 -32 11 -39 16 -19 15 -116 50 -146 53 -43 5 -45 14 -9 43 18 15
32 32 32 39 0 23 -104 33 -230 22z"/>
<path d="M11074 10636 c-11 -8 -43 -14 -73 -14 -53 -1 -152 -28 -226 -62 -22
-10 -64 -26 -93 -35 -29 -9 -58 -22 -65 -29 -6 -7 -19 -15 -27 -19 -8 -4 -31
-17 -50 -28 -19 -12 -43 -23 -55 -25 -34 -7 -105 -48 -105 -62 0 -7 -4 -11 -8
-8 -16 10 -83 -15 -137 -50 -30 -19 -60 -34 -68 -34 -7 0 -22 -8 -33 -18 -18
-18 -70 -37 -86 -34 -5 1 -8 -3 -8 -8 0 -6 -7 -10 -16 -10 -9 0 -28 -8 -42
-18 -45 -31 -170 -91 -176 -85 -3 4 -6 1 -6 -6 0 -7 -3 -10 -8 -8 -4 3 -25 -3
-46 -14 -22 -10 -43 -19 -48 -19 -4 0 -38 -14 -75 -31 -38 -17 -78 -35 -90
-40 -13 -5 -23 -14 -23 -20 0 -6 -9 -9 -19 -6 -11 3 -29 -2 -41 -10 -12 -8
-27 -16 -33 -17 -7 -1 -39 -18 -72 -38 -33 -19 -71 -39 -85 -43 -14 -4 -37
-16 -52 -27 -16 -11 -28 -16 -28 -11 0 4 -5 0 -11 -10 -6 -10 -48 -36 -93 -57
-46 -22 -89 -46 -96 -55 -6 -8 -27 -17 -46 -21 -19 -3 -34 -11 -34 -17 0 -6
-3 -8 -6 -4 -7 7 -67 -26 -117 -66 -21 -16 -62 -42 -90 -56 -57 -28 -94 -83
-82 -121 8 -26 79 -67 130 -75 42 -7 93 -16 185 -34 30 -6 71 -13 90 -15 19
-2 57 -11 83 -20 54 -19 116 -27 227 -30 84 -2 173 11 230 34 14 5 61 14 105
19 71 8 116 16 300 51 79 15 89 18 177 51 98 35 364 166 463 227 38 23 86 57
105 75 19 18 61 54 92 80 31 27 92 92 135 145 43 53 83 101 90 105 16 10 60
97 103 202 18 44 38 94 45 110 16 37 29 127 26 180 -1 22 -13 64 -27 93 -27
56 -50 66 -90 38z m-254 -232 c106 -7 100 -4 126 -62 31 -69 30 -78 -6 -169
-16 -41 -30 -83 -30 -94 0 -10 -11 -26 -25 -35 -14 -9 -23 -20 -20 -24 3 -4
-4 -10 -14 -13 -11 -3 -32 -23 -48 -46 -15 -22 -34 -40 -41 -41 -7 0 -15 -6
-18 -13 -6 -17 -3 -16 -149 -21 -66 -2 -133 -9 -148 -15 -16 -6 -33 -9 -38 -5
-5 3 -9 2 -9 -3 0 -4 -14 -9 -31 -10 -17 -1 -36 -6 -43 -11 -6 -5 -19 -8 -28
-7 -10 2 -18 -1 -18 -6 0 -6 -6 -9 -12 -7 -7 1 -40 -2 -73 -7 -33 -5 -64 -8
-69 -6 -4 1 -14 -3 -20 -9 -7 -5 -17 -6 -21 -2 -5 4 -6 0 -3 -8 4 -12 -2 -15
-28 -14 -22 1 -37 -4 -44 -15 -5 -9 -10 -12 -10 -7 0 5 -7 3 -15 -4 -8 -7 -22
-10 -30 -6 -9 3 -34 -6 -55 -19 -22 -14 -40 -22 -40 -19 0 4 -6 1 -13 -5 -8
-6 -24 -13 -38 -15 -13 -3 -26 -5 -29 -6 -3 -2 -8 -2 -12 -1 -5 0 -8 -4 -8
-10 0 -5 -4 -8 -9 -4 -5 3 -17 -2 -25 -11 -9 -8 -16 -11 -16 -6 0 9 -87 -31
-132 -61 -15 -10 -32 -16 -38 -12 -5 3 -10 -1 -10 -10 0 -9 -4 -13 -10 -10
-11 7 -138 -59 -209 -108 -25 -17 -48 -31 -51 -30 -13 2 -29 -10 -24 -18 8
-13 -10 -11 -25 4 -11 10 -13 10 -7 0 10 -18 -38 -17 -73 1 -33 18 -91 81 -91
100 0 18 66 76 85 76 8 0 15 4 15 9 0 6 10 8 22 6 12 -3 30 3 40 12 10 9 18
12 18 7 0 -5 7 2 16 14 8 12 22 22 31 22 9 0 27 9 39 21 12 11 29 22 38 23 9
1 28 13 43 26 15 13 49 31 77 42 28 10 52 22 54 27 2 6 10 7 18 4 7 -3 16 1
19 9 3 8 14 14 23 15 24 2 92 42 92 55 0 5 4 6 10 3 9 -5 69 20 80 34 3 3 32
15 65 25 107 35 135 48 128 60 -3 6 -3 8 2 4 5 -5 22 2 39 15 17 13 52 31 79
41 26 10 45 21 43 25 -3 4 8 5 24 3 21 -3 32 1 36 12 3 9 10 13 15 10 5 -3 9
1 9 8 0 12 55 42 72 40 3 -1 12 5 18 13 7 8 20 15 30 15 9 0 28 8 41 18 13 9
47 28 74 42 28 14 52 28 55 31 12 13 125 69 141 69 10 0 33 14 51 30 18 17 43
30 55 30 13 0 23 5 23 11 0 5 5 7 12 3 7 -4 28 -9 48 -10z"/>
<path d="M4057 15437 c-45 -40 -67 -158 -42 -221 10 -22 11 -293 2 -351 -12
-86 -26 -156 -33 -166 -8 -14 -14 -74 -18 -185 l-3 -91 31 -13 c17 -7 35 -15
39 -18 5 -2 3 6 -3 18 -31 57 -18 150 43 315 15 40 21 121 33 430 9 234 2 209
63 213 43 3 60 -2 90 -21 72 -48 167 -137 236 -221 169 -206 192 -242 250
-381 15 -36 17 -38 27 -21 7 12 8 46 4 90 -5 57 -13 79 -37 114 -17 23 -27 42
-24 42 4 0 -3 13 -14 29 -12 16 -21 33 -21 38 0 15 -281 281 -315 299 -16 8
-37 21 -45 28 -25 22 -170 87 -203 92 -24 4 -39 -1 -60 -19z"/>
<path d="M4959 15158 c-22 -19 -65 -89 -72 -118 -29 -117 -44 -160 -52 -153
-5 4 -4 1 2 -7 8 -11 9 -30 2 -65 -5 -28 -14 -75 -20 -105 -12 -64 -13 -66
-72 -190 -25 -53 -60 -141 -78 -195 -19 -55 -46 -118 -61 -139 -16 -21 -28
-45 -28 -52 0 -10 74 -54 92 -54 3 0 8 21 10 48 3 26 22 83 43 127 67 144 126
278 156 360 33 89 69 253 69 318 0 23 7 53 15 67 8 14 18 33 21 43 9 23 21 21
35 -5 7 -13 42 -59 79 -103 90 -106 216 -294 230 -342 6 -21 13 -85 16 -143 6
-101 5 -107 -24 -172 -45 -98 -153 -203 -271 -261 -49 -25 -95 -47 -103 -49
-9 -3 -3 -14 18 -34 41 -38 58 -40 74 -9 7 14 16 25 20 25 12 0 50 37 50 49 0
7 4 10 9 7 5 -3 16 5 24 18 16 24 100 86 118 86 5 0 9 5 9 10 0 6 9 10 19 10
11 0 23 5 26 10 3 6 14 10 25 10 14 0 17 -5 13 -22 -9 -40 -34 -91 -75 -152
-39 -57 -50 -69 -131 -142 -36 -33 -37 -35 -21 -59 9 -14 22 -25 29 -25 7 0
19 -9 26 -20 13 -20 18 -16 112 74 53 51 97 98 97 104 0 6 6 17 14 25 23 23
66 179 72 259 7 96 6 118 -6 148 -9 26 -35 125 -44 170 -2 14 -11 42 -20 62
-9 21 -16 46 -16 57 0 10 -7 21 -15 25 -8 3 -15 12 -15 20 0 14 -61 144 -100
216 -23 40 -130 172 -175 213 -25 24 -95 67 -108 67 -2 0 -10 -6 -18 -12z"/>
<path d="M3350 14635 c-30 -7 -96 -15 -146 -18 -88 -6 -193 -37 -299 -90 -17
-8 -43 -21 -60 -29 -35 -15 -166 -106 -178 -122 -4 -6 -12 -28 -18 -49 -5 -21
-13 -45 -16 -52 -3 -9 28 -49 79 -103 78 -84 208 -259 208 -282 0 -6 4 -18 10
-28 5 -9 27 -56 48 -103 22 -47 44 -89 51 -93 6 -4 11 -16 11 -27 0 -11 14
-34 30 -51 25 -24 36 -29 58 -23 33 8 40 14 25 23 -19 12 -122 194 -178 313
-42 92 -139 230 -200 284 -28 26 -47 53 -51 72 -6 29 -1 37 45 82 47 46 178
121 212 121 8 0 38 13 67 29 70 39 143 63 206 66 28 2 76 11 106 19 124 36
303 7 462 -74 81 -41 98 -38 58 13 -50 63 -176 108 -360 127 -112 11 -101 12
-170 -5z"/>
<path d="M3611 14471 c-18 -12 -26 -139 -9 -158 10 -12 36 -148 41 -215 1 -9
5 -14 9 -12 4 3 8 -4 8 -15 0 -11 4 -22 9 -25 13 -9 20 -55 7 -50 -6 2 -16 -6
-21 -18 -6 -12 -24 -26 -42 -32 -17 -6 -40 -22 -51 -35 -19 -25 -20 -25 -98
-13 -163 25 -217 13 -180 -40 9 -12 16 -28 16 -36 0 -7 11 -30 25 -50 14 -20
25 -47 25 -59 0 -12 12 -35 26 -52 14 -17 24 -38 21 -46 -4 -8 -32 -19 -66
-26 -59 -11 -63 -14 -191 -142 -72 -72 -144 -154 -160 -182 -17 -29 -37 -59
-46 -66 -22 -18 -84 -116 -84 -133 0 -39 -151 -195 -284 -293 -74 -54 -96
-127 -55 -184 24 -35 91 -69 133 -69 17 0 72 -11 123 -24 50 -14 113 -28 140
-32 26 -3 55 -10 64 -15 9 -4 79 -11 155 -15 142 -7 242 4 274 30 29 23 135
74 179 86 27 7 65 30 95 56 28 24 64 50 81 58 91 43 145 66 154 66 5 0 24 17
43 39 36 42 73 65 92 58 22 -9 82 57 120 131 20 39 29 40 51 5 32 -49 24 -299
-15 -438 -30 -106 -54 -152 -173 -335 -77 -117 -103 -143 -242 -240 -230 -161
-378 -250 -414 -250 -9 0 -26 -7 -38 -15 -19 -14 -22 -13 -37 10 -18 28 -36
25 -36 -4 0 -30 29 -46 86 -48 29 0 58 -4 63 -8 6 -3 11 -2 11 2 0 5 27 15 59
22 33 7 71 19 84 26 85 44 163 90 179 105 11 10 31 21 45 25 13 3 48 22 76 42
29 20 65 46 82 57 16 12 36 29 43 39 7 9 19 17 26 17 7 0 23 11 36 25 13 14
28 25 34 25 6 0 21 10 32 23 12 12 46 40 76 62 53 39 118 113 118 135 0 5 4
10 8 10 5 0 18 18 31 40 12 22 27 40 32 40 6 0 8 4 4 9 -3 5 -1 12 4 15 22 14
80 157 90 224 17 112 15 135 -16 158 -47 34 -49 34 -50 1 0 -18 -1 -68 -3
-112 -2 -84 -23 -173 -50 -215 -9 -14 -21 -36 -28 -50 -22 -43 -254 -274 -319
-318 -60 -40 -93 -52 -93 -33 0 10 170 181 180 181 8 0 73 141 120 260 12 30
30 73 40 95 30 62 41 133 35 220 -3 44 -6 111 -6 150 0 38 -6 81 -13 95 -28
53 -54 155 -42 162 6 4 7 8 1 8 -13 0 -35 48 -35 76 0 38 -21 87 -33 75 -6 -6
-18 -11 -26 -11 -8 0 -29 -11 -47 -25 -18 -14 -34 -20 -36 -14 -2 7 -12 7 -28
1 -14 -5 -49 -12 -78 -16 -60 -7 -99 9 -188 76 -61 45 -82 74 -106 143 -10 28
-27 62 -38 77 -26 35 -25 37 8 36 15 0 47 5 72 11 87 21 139 14 226 -27 43
-22 90 -51 104 -65 14 -15 29 -27 35 -27 5 0 31 -21 58 -47 l49 -48 -5 60 c-5
50 -11 64 -39 90 -90 85 -202 136 -336 155 -51 6 -71 20 -72 46 0 7 -16 35
-35 63 -62 90 -26 109 162 86 130 -17 206 -47 282 -112 23 -19 41 -30 41 -24
0 6 1 13 1 16 1 2 8 40 15 82 12 73 11 80 -7 103 -11 14 -35 57 -53 95 -18 39
-53 91 -77 117 -70 75 -109 122 -109 130 0 15 32 8 57 -12 14 -11 33 -20 42
-20 20 0 126 -98 167 -153 l28 -39 12 49 c7 26 13 49 14 51 0 1 -10 2 -22 2
-12 0 -18 3 -15 7 4 3 -2 11 -12 17 -54 32 -171 118 -171 126 0 6 -8 10 -19
10 -10 0 -24 7 -31 15 -7 8 -18 15 -24 15 -18 0 -145 67 -140 74 2 3 1 4 -2 2
-3 -2 -29 2 -57 9 -75 19 -140 26 -156 16z m125 -71 c41 -16 168 -127 223
-195 53 -65 137 -212 127 -222 -3 -3 -23 -1 -45 5 -21 7 -73 15 -114 18 -61 6
-83 3 -113 -11 l-38 -18 -26 31 c-39 47 -59 123 -55 217 2 44 0 98 -4 120 -12
65 -5 74 45 55z m-194 -600 c32 -9 98 -70 98 -90 0 -3 -21 -11 -46 -18 -25 -7
-56 -24 -69 -38 -21 -22 -27 -25 -40 -14 -8 7 -15 18 -15 24 0 6 -14 40 -30
74 -17 35 -30 66 -30 68 0 8 96 4 132 -6z m108 -441 c0 -3 27 -27 60 -55 58
-48 78 -80 43 -70 -10 2 -43 11 -74 20 -65 18 -120 58 -145 105 -11 19 -43 58
-71 87 -29 29 -53 57 -53 63 0 6 12 13 28 17 15 3 32 7 37 9 9 3 174 -163 175
-176z m-299 81 c10 -6 56 -49 101 -96 45 -47 104 -99 131 -117 35 -22 47 -36
44 -49 -3 -10 -1 -18 4 -18 25 0 1 -30 -61 -80 -39 -30 -70 -58 -70 -62 0 -4
-20 -27 -45 -50 -25 -23 -45 -50 -45 -60 0 -9 -8 -22 -19 -27 -16 -9 -17 -17
-11 -52 9 -50 37 -75 96 -84 58 -8 80 -26 64 -51 -20 -31 -99 -85 -185 -128
-64 -33 -90 -40 -130 -39 -27 1 -81 2 -119 2 -39 0 -126 8 -195 17 -69 9 -144
17 -166 19 -101 6 -190 59 -178 105 10 37 225 210 261 210 22 0 112 91 136
139 9 17 14 40 11 51 -3 10 -1 21 5 25 5 3 10 13 10 22 0 9 15 34 33 57 19 23
50 62 69 88 20 26 39 44 42 41 3 -4 6 -2 6 3 0 23 119 127 155 137 32 8 35 8
56 -3z m612 -286 c13 -13 -33 -81 -99 -146 -43 -44 -61 -68 -50 -68 34 0 149
61 185 98 21 21 45 41 54 45 13 5 14 2 5 -26 -20 -58 -117 -175 -169 -203 -32
-16 -103 -33 -182 -43 -47 -6 -57 -5 -55 8 2 11 -15 18 -66 27 -70 13 -91 23
-68 31 23 8 99 79 162 150 68 76 103 98 193 117 76 17 82 18 90 10z"/>
<path d="M4318 14171 c-11 -30 -29 -149 -30 -201 0 -19 -5 -40 -10 -46 -4 -6
-6 -18 -3 -26 4 -9 -1 -23 -10 -32 -9 -9 -12 -16 -6 -16 17 0 13 -28 -5 -38
-17 -10 -23 -83 -25 -312 -2 -166 11 -247 58 -370 4 -8 6 -18 5 -21 -1 -8 65
-138 79 -155 5 -6 11 -20 13 -31 11 -54 47 -91 130 -132 46 -23 96 -41 111
-41 39 0 94 20 132 47 17 13 35 23 40 23 9 0 123 105 123 114 0 3 20 33 45 67
25 34 45 67 45 74 0 7 6 18 14 24 12 10 47 72 51 91 1 3 4 12 8 20 3 8 8 26
10 40 3 14 8 36 11 50 4 14 11 43 16 65 4 22 11 51 15 65 18 74 9 123 -39 217
-25 51 -58 105 -71 122 -14 16 -25 33 -25 37 0 19 -86 83 -127 94 -23 7 -43
16 -43 20 0 4 -28 20 -62 36 -91 43 -98 47 -98 63 0 11 -3 12 -11 4 -15 -15
-47 3 -126 73 -36 33 -77 66 -92 74 -14 8 -28 18 -31 21 -3 3 -22 6 -43 6 -32
0 -40 -5 -49 -26z m187 -131 c87 -68 208 -148 260 -170 87 -37 199 -170 223
-265 40 -153 19 -265 -89 -490 -16 -33 -29 -70 -29 -82 0 -11 -12 -32 -27 -45
-16 -12 -33 -35 -40 -49 -30 -67 -201 -98 -250 -45 -13 14 -23 30 -23 36 0 5
-4 10 -10 10 -5 0 -10 7 -10 15 0 8 -4 15 -10 15 -5 0 -10 6 -10 14 0 7 -29
53 -65 102 -36 49 -68 98 -70 109 -13 64 -30 277 -30 385 0 94 21 245 36 265
4 6 10 37 13 69 3 32 14 83 23 112 22 67 39 69 108 14z"/>
<path d="M3549 12512 c-2 -4 -29 -26 -59 -49 -70 -51 -72 -54 -99 -138 -21
-65 -45 -240 -35 -256 5 -8 -18 -121 -40 -199 -24 -84 -20 -131 11 -112 18 11
52 118 79 246 14 65 32 132 40 147 8 16 30 91 50 167 19 75 42 150 50 166 8
16 12 31 10 33 -2 2 -6 0 -7 -5z"/>
<path d="M4875 8070 c3 -5 12 -7 20 -3 21 7 19 13 -6 13 -11 0 -18 -4 -14 -10z"/>
<path d="M4920 8061 c0 -7 -4 -9 -10 -6 -5 3 -10 1 -10 -4 0 -6 4 -11 9 -11
13 0 25 20 17 27 -3 4 -6 1 -6 -6z"/>
</g>
</svg>
